<svg width="1920" height="1080" viewBox="0 0 1920 1080" xmlns="http://www.w3.org/2000/svg">
  <defs>
    <linearGradient id="bg" x1="0%" y1="0%" x2="100%" y2="100%">
      <stop offset="0%" stop-color="#0B0A1A"/>
      <stop offset="55%" stop-color="#14122B"/>
      <stop offset="100%" stop-color="#1C1638"/>
    </linearGradient>

    <radialGradient id="blob1" cx="50%" cy="50%" r="50%">
      <stop offset="0%" stop-color="#4FD6FA" stop-opacity="0.55"/>
      <stop offset="100%" stop-color="#4FD6FA" stop-opacity="0"/>
    </radialGradient>
    <radialGradient id="blob2" cx="50%" cy="50%" r="50%">
      <stop offset="0%" stop-color="#8B6CFF" stop-opacity="0.55"/>
      <stop offset="100%" stop-color="#8B6CFF" stop-opacity="0"/>
    </radialGradient>
    <radialGradient id="blob3" cx="50%" cy="50%" r="50%">
      <stop offset="0%" stop-color="#5B8CFF" stop-opacity="0.45"/>
      <stop offset="100%" stop-color="#5B8CFF" stop-opacity="0"/>
    </radialGradient>

    <filter id="blur1"><feGaussianBlur stdDeviation="90"/></filter>
    <filter id="blur2"><feGaussianBlur stdDeviation="60"/></filter>
    <filter id="grain">
      <feTurbulence type="fractalNoise" baseFrequency="0.9" numOctaves="2" result="noise"/>
      <feColorMatrix in="noise" type="matrix"
        values="0 0 0 0 1  0 0 0 0 1  0 0 0 0 1  0 0 0 0.02 0"/>
    </filter>
  </defs>

  <rect width="1920" height="1080" fill="url(#bg)"/>

  <!-- Blob liquidi in stile logo -->
  <ellipse cx="360" cy="820" rx="560" ry="460" fill="url(#blob1)" filter="url(#blur1)"/>
  <ellipse cx="1500" cy="260" rx="620" ry="500" fill="url(#blob2)" filter="url(#blur1)"/>
  <ellipse cx="1150" cy="900" rx="420" ry="340" fill="url(#blob3)" filter="url(#blur1)"/>
  <ellipse cx="700" cy="200" rx="380" ry="300" fill="url(#blob1)" filter="url(#blur2)" opacity="0.6"/>

  <!-- Forma "flowing" centrale ispirata al logo -->
  <path d="M 860 380
           C 920 300, 1020 300, 1040 380
           C 1060 460, 990 470, 1010 540
           C 1030 610, 1140 570, 1160 640
           C 1180 720, 1080 780, 990 760
           C 880 740, 800 660, 800 560
           C 800 480, 810 430, 860 380 Z"
        fill="url(#blob2)" opacity="0.35" filter="url(#blur2)"/>

  <!-- Grana sottile per texture "glass" -->
  <rect width="1920" height="1080" filter="url(#grain)"/>
</svg>
